<?xml version="1.0" encoding="UTF-8" standalone="no"?>
<!DOCTYPE svg PUBLIC "-//W3C//DTD SVG 1.1//EN" "http://www.w3.org/Graphics/SVG/1.1/DTD/svg11.dtd">
<svg width="100%" height="100%" viewBox="0 0 713 397" version="1.1" xmlns="http://www.w3.org/2000/svg" xmlnsxlink="http://www.w3.org/1999/xlink" xmlspace="preserve" xmlnsserif="http://www.serif.com/" style="fill-rule:evenodd;clip-rule:evenodd;stroke-linecap:round;stroke-linejoin:round;stroke-miterlimit:1.5;">
    <g transform="matrix(1,0,0,1,-183.649,-477.233)">
        <g id="Illustration" transform="matrix(1,0,0,1,-7.11935,-79.7367)">
            <rect x="426.536" y="691.642" width="474.149" height="259.144" style="fill:white;stroke:black;stroke-width:4.5px;"/>
            <g transform="matrix(1,0,0,1,11.391,25.6297)">
                <rect x="294.116" y="620.449" width="481.268" height="233.515" style="fill:white;stroke:black;stroke-width:4.5px;"/>
            </g>
            <g transform="matrix(1,0,0,1,-11.391,44.14)">
                <rect x="204.412" y="515.082" width="469.877" height="260.568" style="fill:white;stroke:black;stroke-width:4.5px;"/>
            </g>
            <g transform="matrix(1,0,0,1,7.11935,79.7367)">
                <path d="M237.303,686.388L380.61,593.933L486.934,635.538L582.472,532.295" style="fill:none;stroke:rgb(0,102,255);stroke-width:4.5px;"/>
            </g>
            <g transform="matrix(1,0,0,1,7.11935,79.7367)">
                <path d="M237.303,686.388L380.61,620.128L488.475,612.424L574.767,521.509" style="fill:none;stroke:rgb(255,62,0);stroke-width:4.5px;"/>
            </g>
        </g>
    </g>
</svg>
